<?xml version="1.0" encoding="utf-8"?>
<!-- Generator: Adobe Illustrator 27.8.1, SVG Export Plug-In . SVG Version: 6.00 Build 0)  -->
<svg version="1.1" id="Layer_1" xmlns="http://www.w3.org/2000/svg" xmlns:xlink="http://www.w3.org/1999/xlink" x="0px" y="0px"
	 viewBox="0 0 100.6 100.6" style="enable-background:new 0 0 100.6 100.6;" xml:space="preserve">
<style type="text/css">
	.st0{fill:#FFFFFF;}
	.st1{fill:none;stroke:#000000;stroke-width:15;stroke-miterlimit:10;}
	.st2{fill:#EE1F61;}
</style>
<g>
	<path class="st0" d="M85.1,39.3h15.5C96.3,19.7,80.9,4.3,61.3,0v15.5C72.6,19.1,81.5,28,85.1,39.3z"/>
	<path class="st0" d="M39.3,15.5V0C19.7,4.3,4.3,19.7,0,39.3h15.5C19.1,28,28,19.1,39.3,15.5z"/>
	<path class="st0" d="M61.3,85.1v15.5c19.6-4.3,35-19.7,39.3-39.3H85.1C81.5,72.6,72.6,81.5,61.3,85.1z"/>
	<path class="st0" d="M15.5,61.3H0c4.3,19.6,19.7,35,39.3,39.3V85.1C28,81.5,19.1,72.6,15.5,61.3z"/>
</g>
<circle class="st1" cx="-461.7" cy="-141.2" r="44"/>
<rect x="-472.7" y="-302.2" class="st2" width="22" height="322"/>
<rect x="-472.7" y="-302.2" transform="matrix(6.123234e-17 -1 1 6.123234e-17 -320.5 -602.8896)" class="st2" width="22" height="322"/>
</svg>
