<?xml version="1.0" encoding="utf-8"?>
<!-- Generator: Adobe Illustrator 27.8.1, SVG Export Plug-In . SVG Version: 6.00 Build 0)  -->
<svg version="1.1" id="Layer_1" xmlns="http://www.w3.org/2000/svg" xmlns:xlink="http://www.w3.org/1999/xlink" x="0px" y="0px"
	 viewBox="0 0 186.6 200.1" style="enable-background:new 0 0 186.6 200.1;" xml:space="preserve">
<style type="text/css">
	.st0{fill:#020202;}
</style>
<g>
	<g>
		<circle class="st0" cx="101.3" cy="31.6" r="17"/>
	</g>
	<g>
		<circle class="st0" cx="147" cy="14.6" r="12.2"/>
	</g>
	<g>
		<circle class="st0" cx="158.8" cy="66.6" r="24"/>
	</g>
	<path class="st0" d="M163.3,102.3c-1.5,0.2-3,0.3-4.5,0.3c-19.9,0-36-16.2-36-36c0-7.5,2.3-14.6,6.3-20.3c-0.7-0.5-1.4-0.9-2.1-1.4
		c-4.8,9.3-14.6,15.7-25.7,15.7c-15.6,0-28.3-12.4-28.9-27.8C33,38,2.7,71.8,2.7,112.6c0,44.5,36.1,80.6,80.6,80.6
		s80.6-36.1,80.6-80.6C164,109.1,163.7,105.7,163.3,102.3z M83.3,142.6c-16.4,0-29.6-13.3-29.6-29.6S67,83.3,83.3,83.3
		s29.6,13.3,29.6,29.6S99.7,142.6,83.3,142.6z"/>
</g>
</svg>
