<?xml version="1.0" encoding="utf-8"?>
<!-- Generator: Adobe Illustrator 27.8.1, SVG Export Plug-In . SVG Version: 6.00 Build 0)  -->
<svg version="1.1" id="Layer_1" xmlns="http://www.w3.org/2000/svg" xmlns:xlink="http://www.w3.org/1999/xlink" x="0px" y="0px"
	 viewBox="0 0 189.9 57.3" style="enable-background:new 0 0 189.9 57.3;" xml:space="preserve">
<style type="text/css">
	.st0{fill:none;stroke:#000000;stroke-width:2;stroke-linecap:round;stroke-miterlimit:10;}
	.st1{fill:none;stroke:#000000;stroke-width:2;stroke-miterlimit:10;}
</style>
<polyline class="st0" points="41.7,40.2 53.7,22.4 60.5,31.3 "/>
<path class="st1" d="M63.5,33.2c0,0,0.4-6.4,5.8-10.8"/>
<path class="st0" d="M83.3,24c0,0-0.8,5.4,3.2,7.3c2.7,1.3,7.8-0.8,9.9-2.6c2.9-2.5,4.7-6.2,5.5-9.9c0.5-2.3,0.7-4.6,0.3-6.9
	C100.5,2,89.3,3.3,82.1,5.1C62.9,9.9,44.3,17.9,28.2,29.5c-4.5,3.3-8.8,6.8-12.9,10.6c-3.5,3.2-8,6.8-10.4,11
	c-0.4,0.7-0.7,1.5-0.4,2.3c0.4,0.8,1.5,1,2.4,1.1c20.1,1.3,39.3-7.3,58.6-13c29.9-8.9,61.4-11.3,92.4-9c8.6,0.6,17.9,0.9,26.2,3.4
	c0.3,0.1,0.6,0.2,0.8,0.4c0.6,0.5,0.6,1.5,0.2,2.2c-1.3,2.9-5.5,4.4-8.3,5.4"/>
</svg>
